HIERARCHY
ROOT Root
{
	OFFSET 0.00000 0.00000 0.00000
	CHANNELS 6 Xposition Yposition Zposition Zrotation Xrotation Yrotation
	JOINT Hips
	{
		OFFSET 0 0 0	
		CHANNELS 3 Zrotation Xrotation Yrotation
		JOINT Spine
		{
			OFFSET 0 4 0	
			CHANNELS 3 Zrotation Xrotation Yrotation
			JOINT Spine1
			{
				OFFSET 0 19.4 0	
				CHANNELS 3 Zrotation Xrotation Yrotation
				JOINT Spine2
				{
					OFFSET 0 16.6 0	
					CHANNELS 3 Zrotation Xrotation Yrotation
					JOINT LeftCollar
					{
						OFFSET 0 10 0	
						CHANNELS 3 Zrotation Xrotation Yrotation
						JOINT LeftArm
						{
							OFFSET 15.6 -2 3	
							CHANNELS 3 Zrotation Xrotation Yrotation
							JOINT LeftForeArm
							{
								OFFSET 3.5 -27 -1	
								CHANNELS 3 Zrotation Xrotation Yrotation
								JOINT LeftHand
								{
									OFFSET 1 -27 1	
									CHANNELS 3 Zrotation Xrotation Yrotation
									End Site
									{
										OFFSET 0 -15 0
									}
								}
							}
						}
					}
					JOINT RightCollar
					{
						OFFSET 0 10 0	
						CHANNELS 3 Zrotation Xrotation Yrotation
						JOINT RightArm
						{
							OFFSET -15.6 -2 3	
							CHANNELS 3 Zrotation Xrotation Yrotation
							JOINT RightForeArm
							{
								OFFSET -3.5 -27 -1	
								CHANNELS 3 Zrotation Xrotation Yrotation
								JOINT RightHand
								{
									OFFSET -1 -27 1	
									CHANNELS 3 Zrotation Xrotation Yrotation
									End Site
									{
										OFFSET 0 -15 0
									}
								}
							}
						}
					}
					JOINT Neck
					{
						OFFSET 0 10 0	
						CHANNELS 3 Zrotation Xrotation Yrotation
						JOINT Head
						{
							OFFSET 0 12.7 3	
							CHANNELS 3 Zrotation Xrotation Yrotation
							End Site
							{
								OFFSET 0 12.7 3
							}
						}
					}
				}
			}
		}
	}
	JOINT LeftHip
	{
		OFFSET 0 0 0	
		CHANNELS 3 Zrotation Xrotation Yrotation
		JOINT LeftUpLeg
		{
			OFFSET 8.8 -6 0	
			CHANNELS 3 Zrotation Xrotation Yrotation
			JOINT LeftLeg
			{
				OFFSET 0 -39 2	
				CHANNELS 3 Zrotation Xrotation Yrotation
				JOINT LeftFoot
				{
					OFFSET 0 -43 -2	
					CHANNELS 3 Zrotation Xrotation Yrotation
					JOINT LeftFootFront
					{
						OFFSET 0 -7 8.5	
						CHANNELS 3 Zrotation Xrotation Yrotation
						End Site
						{
							OFFSET 0 -0.5 9
						}
					}
				}
				JOINT LeftHeel
				{
					OFFSET 0 -43 -2	
					CHANNELS 3 Zrotation Xrotation Yrotation
					End Site
					{
						OFFSET 0 -7.5 -5
					}
				}
			}
		}
	}
	JOINT RightHip
	{
		OFFSET 0 0 0	
		CHANNELS 3 Zrotation Xrotation Yrotation
		JOINT RightUpLeg
		{
			OFFSET -8.8 -6 0	
			CHANNELS 3 Zrotation Xrotation Yrotation
			JOINT RightLeg
			{
				OFFSET 0 -39 2	
				CHANNELS 3 Zrotation Xrotation Yrotation
				JOINT RightFoot
				{
					OFFSET 0 -43 -2	
					CHANNELS 3 Zrotation Xrotation Yrotation
					JOINT RightFootFront
					{
						OFFSET 0 -7 8.5	
						CHANNELS 3 Zrotation Xrotation Yrotation
						End Site
						{
							OFFSET 0 -0.5 9
						}
					}
				}
				JOINT RightHeel
				{
					OFFSET 0 -43 -2	
					CHANNELS 3 Zrotation Xrotation Yrotation
					End Site
					{
						OFFSET 0 -7.5 -5
					}
				}
			}
		}
	}
}
MOTION
Frames: 30
Frame Time: 0.05
0 95.5 0 -0 0 -0 -0 0 -0 -0 0 -0 -0.65659 6.5277 -1.3999 -0 0 -0 -0 0 -0 -12.227 -60.045 -3.5111 -75.639 -44.557 -55.389 -0 0 -0 -0 0 -0 29.732 -32.423 32.25 111.11 -31.825 47.981 -0 0 -0 0.78114 -14.32 3.1939 0.78114 -14.32 3.1939 -0 0 -0 -0 0 -0 -0 0 -0 -0 0 -0 -0 0 -0 -0 0 -0 -0 0 -0 -0 0 -0 -0 0 -0 -0 0 -0 -0 0 -0 -0 0 -0 
0 95.5 0 -0 0 -0 -0 0 -0 -0 0 -0 -0.51508 6.3851 -1.3903 -0 0 -0 -0 0 -0 -12.813 -60.14 -3.7894 -75.152 -44.44 -55.934 -0 0 -0 -0 0 -0 27.557 -31.532 31.002 111.78 -31.772 47.254 -0 0 -0 0.75502 -14.203 3.2301 0.75502 -14.203 3.2301 -0 0 -0 -0 0 -0 -0 0 -0 -0 0 -0 -0 0 -0 -0 0 -0 -0 0 -0 -0 0 -0 -0 0 -0 -0 0 -0 -0 0 -0 -0 0 -0 
0 95.5 0 -0 0 -0 -0 0 -0 -0 0 -0 -0.27559 6.3127 -1.3748 -0 0 -0 -0 0 -0 -13.402 -60.326 -3.8428 -74.835 -44.252 -56.658 -0 0 -0 -0 0 -0 24.324 -29.953 29.968 113.03 -31.698 46.005 -0 0 -0 0.74093 -14.21 3.3547 0.74093 -14.21 3.3547 -0 0 -0 -0 0 -0 -0 0 -0 -0 0 -0 -0 0 -0 -0 0 -0 -0 0 -0 -0 0 -0 -0 0 -0 -0 0 -0 -0 0 -0 -0 0 -0 
0 95.5 0 -0 0 -0 -0 0 -0 -0 0 -0 0.05079 6.3115 -1.4736 -0 0 -0 -0 0 -0 -13.558 -60.548 -3.2458 -74.885 -44.036 -57.21 -0 0 -0 -0 0 -0 20.653 -27.961 29.533 113.89 -31.539 43.471 -0 0 -0 0.67817 -14.326 3.7245 0.67817 -14.326 3.7245 -0 0 -0 -0 0 -0 -0 0 -0 -0 0 -0 -0 0 -0 -0 0 -0 -0 0 -0 -0 0 -0 -0 0 -0 -0 0 -0 -0 0 -0 -0 0 -0 
0 95.5 0 -0 0 -0 -0 0 -0 -0 0 -0 0.45029 6.3191 -1.6798 -0 0 -0 -0 0 -0 -13.409 -60.771 -2.3854 -74.812 -44.041 -57.599 -0 0 -0 -0 0 -0 16.709 -25.774 29.429 114.6 -31.084 39.929 -0 0 -0 0.62122 -14.427 4.2003 0.62122 -14.427 4.2003 -0 0 -0 -0 0 -0 -0 0 -0 -0 0 -0 -0 0 -0 -0 0 -0 -0 0 -0 -0 0 -0 -0 0 -0 -0 0 -0 -0 0 -0 -0 0 -0 
0 95.5 0 -0 0 -0 -0 0 -0 -0 0 -0 0.84781 6.2495 -1.908 -0 0 -0 -0 0 -0 -13.256 -60.857 -1.6328 -74.593 -44.144 -58.054 -0 0 -0 -0 0 -0 12.725 -23.643 29.185 115.26 -30.166 35.14 -0 0 -0 0.49109 -14.463 4.6467 0.49109 -14.463 4.6467 -0 0 -0 -0 0 -0 -0 0 -0 -0 0 -0 -0 0 -0 -0 0 -0 -0 0 -0 -0 0 -0 -0 0 -0 -0 0 -0 -0 0 -0 -0 0 -0 
0 95.5 0 -0 0 -0 -0 0 -0 -0 0 -0 1.2193 6.1459 -2.0604 -0 0 -0 -0 0 -0 -13.439 -60.823 -1.176 -74.475 -44.169 -58.52 -0 0 -0 -0 0 -0 9.039 -21.673 28.646 115.97 -28.801 27.772 -0 0 -0 0.33886 -14.417 4.8956 0.33886 -14.417 4.8956 -0 0 -0 -0 0 -0 -0 0 -0 -0 0 -0 -0 0 -0 -0 0 -0 -0 0 -0 -0 0 -0 -0 0 -0 -0 0 -0 -0 0 -0 -0 0 -0 
0 95.5 0 -0 0 -0 -0 0 -0 -0 0 -0 1.0795 6.0284 -2.1953 -0 0 -0 -0 0 -0 -13.329 -60.677 -0.86681 -74.488 -44.232 -59.089 -0 0 -0 -0 0 -0 6.2256 -19.881 27.774 116.57 -27.371 17.52 -0 0 -0 0.42503 -14.297 5.1571 0.42503 -14.297 5.1571 -0 0 -0 -0 0 -0 -0 0 -0 -0 0 -0 -0 0 -0 -0 0 -0 -0 0 -0 -0 0 -0 -0 0 -0 -0 0 -0 -0 0 -0 -0 0 -0 
0 95.5 0 -0 0 -0 -0 0 -0 -0 0 -0 1.1656 5.8866 -2.4338 -0 0 -0 -0 0 -0 -13.411 -60.463 -0.49317 -74.519 -44.444 -60.178 -0 0 -0 -0 0 -0 3.9777 -18.545 26.81 116.57 -26.366 6.7646 -0 0 -0 0.43932 -14.108 5.5194 0.43932 -14.108 5.5194 -0 0 -0 -0 0 -0 -0 0 -0 -0 0 -0 -0 0 -0 -0 0 -0 -0 0 -0 -0 0 -0 -0 0 -0 -0 0 -0 -0 0 -0 -0 0 -0 
0 95.5 0 -0 0 -0 -0 0 -0 -0 0 -0 1.3009 5.7136 -2.6588 -0 0 -0 -0 0 -0 -13.418 -60.333 0.025853 -74.691 -44.549 -61.156 -0 0 -0 -0 0 -0 2.2932 -17.408 26.542 115.74 -26.001 -1.8386 -0 0 -0 0.41931 -13.943 5.8732 0.41931 -13.943 5.8732 -0 0 -0 -0 0 -0 -0 0 -0 -0 0 -0 -0 0 -0 -0 0 -0 -0 0 -0 -0 0 -0 -0 0 -0 -0 0 -0 -0 0 -0 -0 0 -0 
0 95.5 0 -0 0 -0 -0 0 -0 -0 0 -0 1.3898 5.6735 -2.6213 -0 0 -0 -0 0 -0 -13.537 -60.345 0.2495 -74.827 -44.572 -61.756 -0 0 -0 -0 0 -0 0.90585 -16.737 27.524 113.81 -26.164 -7.9739 -0 0 -0 0.44567 -13.953 6.0443 0.44567 -13.953 6.0443 -0 0 -0 -0 0 -0 -0 0 -0 -0 0 -0 -0 0 -0 -0 0 -0 -0 0 -0 -0 0 -0 -0 0 -0 -0 0 -0 -0 0 -0 -0 0 -0 
0 95.5 0 -0 0 -0 -0 0 -0 -0 0 -0 1.4229 5.6487 -2.5259 -0 0 -0 -0 0 -0 -13.484 -60.399 0.50815 -74.756 -44.665 -62.22 -0 0 -0 -0 0 -0 -0.5642 -15.606 29.627 111.76 -25.984 -10.284 -0 0 -0 0.43262 -14 6.1425 0.43262 -14 6.1425 -0 0 -0 -0 0 -0 -0 0 -0 -0 0 -0 -0 0 -0 -0 0 -0 -0 0 -0 -0 0 -0 -0 0 -0 -0 0 -0 -0 0 -0 -0 0 -0 
0 95.5 0 -0 0 -0 -0 0 -0 -0 0 -0 1.5869 5.5464 -2.3938 -0 0 -0 -0 0 -0 -13.547 -60.407 0.7707 -74.718 -44.685 -62.623 -0 0 -0 -0 0 -0 -1.8293 -14.874 31.345 109.05 -25.631 -11.226 -0 0 -0 0.33686 -13.969 6.2735 0.33686 -13.969 6.2735 -0 0 -0 -0 0 -0 -0 0 -0 -0 0 -0 -0 0 -0 -0 0 -0 -0 0 -0 -0 0 -0 -0 0 -0 -0 0 -0 -0 0 -0 -0 0 -0 
0 95.5 0 -0 0 -0 -0 0 -0 -0 0 -0 1.7129 5.4978 -2.2901 -0 0 -0 -0 0 -0 -13.535 -60.488 1.0854 -74.693 -44.663 -63.081 -0 0 -0 -0 0 -0 -2.4672 -14.596 32.985 105.55 -25.246 -10.873 -0 0 -0 0.27739 -13.926 6.5233 0.27739 -13.926 6.5233 -0 0 -0 -0 0 -0 -0 0 -0 -0 0 -0 -0 0 -0 -0 0 -0 -0 0 -0 -0 0 -0 -0 0 -0 -0 0 -0 -0 0 -0 -0 0 -0 
0 95.5 0 -0 0 -0 -0 0 -0 -0 0 -0 1.9066 5.4521 -2.1452 -0 0 -0 -0 0 -0 -13.721 -60.611 1.3112 -74.667 -44.596 -63.462 -0 0 -0 -0 0 -0 -2.5173 -14.59 34.526 101.19 -24.84 -8.4947 -0 0 -0 0.17516 -13.927 6.796 0.17516 -13.927 6.796 -0 0 -0 -0 0 -0 -0 0 -0 -0 0 -0 -0 0 -0 -0 0 -0 -0 0 -0 -0 0 -0 -0 0 -0 -0 0 -0 -0 0 -0 -0 0 -0 
0 95.5 0 -0 0 -0 -0 0 -0 -0 0 -0 1.952 5.4281 -1.9778 -0 0 -0 -0 0 -0 -13.808 -60.85 1.4763 -74.599 -44.477 -63.767 -0 0 -0 -0 0 -0 -1.9613 -14.644 36.541 95.513 -24.935 -1.746 -0 0 -0 0.18861 -14.022 6.9925 0.18861 -14.022 6.9925 -0 0 -0 -0 0 -0 -0 0 -0 -0 0 -0 -0 0 -0 -0 0 -0 -0 0 -0 -0 0 -0 -0 0 -0 -0 0 -0 -0 0 -0 -0 0 -0 
0 95.5 0 -0 0 -0 -0 0 -0 -0 0 -0 2.1949 5.3704 -1.787 -0 0 -0 -0 0 -0 -14.081 -61.107 1.5281 -74.522 -44.314 -63.926 -0 0 -0 -0 0 -0 -1.2606 -14.933 37.648 89.483 -24.86 2.7127 -0 0 -0 0.18873 -14.166 7.1294 0.18873 -14.166 7.1294 -0 0 -0 -0 0 -0 -0 0 -0 -0 0 -0 -0 0 -0 -0 0 -0 -0 0 -0 -0 0 -0 -0 0 -0 -0 0 -0 -0 0 -0 -0 0 -0 
0 95.5 0 -0 0 -0 -0 0 -0 -0 0 -0 2.3212 5.3621 -1.5028 -0 0 -0 -0 0 -0 -14.227 -61.369 1.4556 -74.275 -44.215 -63.974 -0 0 -0 -0 0 -0 -0.65247 -14.966 38.515 83.358 -25.377 8.4857 -0 0 -0 0.24975 -14.371 7.2101 0.24975 -14.371 7.2101 -0 0 -0 -0 0 -0 -0 0 -0 -0 0 -0 -0 0 -0 -0 0 -0 -0 0 -0 -0 0 -0 -0 0 -0 -0 0 -0 -0 0 -0 -0 0 -0 
0 95.5 0 -0 0 -0 -0 0 -0 -0 0 -0 2.5028 5.5346 -1.1072 -0 0 -0 -0 0 -0 -14.77 -61.755 0.96685 -74.009 -44.039 -63.964 -0 0 -0 -0 0 -0 0.29573 -14.791 39.874 77.108 -27.419 16.876 -0 0 -0 0.31453 -14.649 7.1041 0.31453 -14.649 7.1041 -0 0 -0 -0 0 -0 -0 0 -0 -0 0 -0 -0 0 -0 -0 0 -0 -0 0 -0 -0 0 -0 -0 0 -0 -0 0 -0 -0 0 -0 -0 0 -0 
0 95.5 0 -0 0 -0 -0 0 -0 -0 0 -0 2.7687 5.5683 -0.84893 -0 0 -0 -0 0 -0 -15.326 -62.027 0.64443 -73.82 -43.816 -63.906 -0 0 -0 -0 0 -0 1.5468 -14.505 40.454 71.81 -28.509 21.164 -0 0 -0 0.27997 -14.864 7.0635 0.27997 -14.864 7.0635 -0 0 -0 -0 0 -0 -0 0 -0 -0 0 -0 -0 0 -0 -0 0 -0 -0 0 -0 -0 0 -0 -0 0 -0 -0 0 -0 -0 0 -0 -0 0 -0 
0 95.5 0 -0 0 -0 -0 0 -0 -0 0 -0 2.9479 5.5523 -0.51889 -0 0 -0 -0 0 -0 -15.974 -62.196 0.10293 -73.667 -43.628 -63.976 -0 0 -0 -0 0 -0 2.9123 -14.263 40.366 65.967 -29.724 24.705 -0 0 -0 0.18381 -15.054 7.1646 0.18381 -15.054 7.1646 -0 0 -0 -0 0 -0 -0 0 -0 -0 0 -0 -0 0 -0 -0 0 -0 -0 0 -0 -0 0 -0 -0 0 -0 -0 0 -0 -0 0 -0 -0 0 -0 
0 95.5 0 -0 0 -0 -0 0 -0 -0 0 -0 3.1364 5.5632 -0.21473 -0 0 -0 -0 0 -0 -16.479 -62.377 -0.26315 -73.505 -43.521 -64.011 -0 0 -0 -0 0 -0 4.4804 -13.802 40.204 60.393 -31.155 26.786 -0 0 -0 0.060032 -15.217 7.2166 0.060032 -15.217 7.2166 -0 0 -0 -0 0 -0 -0 0 -0 -0 0 -0 -0 0 -0 -0 0 -0 -0 0 -0 -0 0 -0 -0 0 -0 -0 0 -0 -0 0 -0 -0 0 -0 
0 95.5 0 -0 0 -0 -0 0 -0 -0 0 -0 3.1884 5.5978 0.044866 -0 0 -0 -0 0 -0 -16.524 -62.61 -0.34647 -73.385 -43.393 -63.806 -0 0 -0 -0 0 -0 6.0019 -13.528 39.246 55.998 -31.756 27.657 -0 0 -0 0.097715 -15.446 7.2183 0.097715 -15.446 7.2183 -0 0 -0 -0 0 -0 -0 0 -0 -0 0 -0 -0 0 -0 -0 0 -0 -0 0 -0 -0 0 -0 -0 0 -0 -0 0 -0 -0 0 -0 -0 0 -0 
0 95.5 0 -0 0 -0 -0 0 -0 -0 0 -0 3.1573 5.5188 0.20407 -0 0 -0 -0 0 -0 -16.092 -62.741 0.032248 -73.248 -43.179 -63.505 -0 0 -0 -0 0 -0 7.6478 -13.025 39.044 52.861 -33.018 27.486 -0 0 -0 0.28764 -15.571 7.2839 0.28764 -15.571 7.2839 -0 0 -0 -0 0 -0 -0 0 -0 -0 0 -0 -0 0 -0 -0 0 -0 -0 0 -0 -0 0 -0 -0 0 -0 -0 0 -0 -0 0 -0 -0 0 -0 
0 95.5 0 -0 0 -0 -0 0 -0 -0 0 -0 3.2822 5.4376 0.42963 -0 0 -0 -0 0 -0 -16.015 -62.819 0.35106 -73.31 -42.994 -63.325 -0 0 -0 -0 0 -0 9.0548 -12.69 38.609 49.892 -33.717 26.741 -0 0 -0 0.39071 -15.637 7.3526 0.39071 -15.637 7.3526 -0 0 -0 -0 0 -0 -0 0 -0 -0 0 -0 -0 0 -0 -0 0 -0 -0 0 -0 -0 0 -0 -0 0 -0 -0 0 -0 -0 0 -0 -0 0 -0 
0 95.5 0 -0 0 -0 -0 0 -0 -0 0 -0 3.2115 5.4509 0.85301 -0 0 -0 -0 0 -0 -15.978 -62.918 0.29785 -73.409 -42.949 -63.24 -0 0 -0 -0 0 -0 10.041 -12.849 37.973 47.228 -33.95 25.943 -0 0 -0 0.51163 -15.771 7.3316 0.51163 -15.771 7.3316 -0 0 -0 -0 0 -0 -0 0 -0 -0 0 -0 -0 0 -0 -0 0 -0 -0 0 -0 -0 0 -0 -0 0 -0 -0 0 -0 -0 0 -0 -0 0 -0 
0 95.5 0 -0 0 -0 -0 0 -0 -0 0 -0 3.1522 5.4701 1.2939 -0 0 -0 -0 0 -0 -15.757 -62.976 0.43407 -73.745 -42.893 -63.284 -0 0 -0 -0 0 -0 10.6 -12.762 37.726 45.439 -34.326 24.961 -0 0 -0 0.6225 -15.896 7.3486 0.6225 -15.896 7.3486 -0 0 -0 -0 0 -0 -0 0 -0 -0 0 -0 -0 0 -0 -0 0 -0 -0 0 -0 -0 0 -0 -0 0 -0 -0 0 -0 -0 0 -0 -0 0 -0 
0 95.5 0 -0 0 -0 -0 0 -0 -0 0 -0 3.0215 5.4905 1.6659 -0 0 -0 -0 0 -0 -15.015 -63.11 1.2429 -74.209 -42.683 -62.988 -0 0 -0 -0 0 -0 10.547 -12.65 37.841 44.602 -34.535 23.18 -0 0 -0 0.81106 -15.96 7.5094 0.81106 -15.96 7.5094 -0 0 -0 -0 0 -0 -0 0 -0 -0 0 -0 -0 0 -0 -0 0 -0 -0 0 -0 -0 0 -0 -0 0 -0 -0 0 -0 -0 0 -0 -0 0 -0 
0 95.5 0 -0 0 -0 -0 0 -0 -0 0 -0 2.9534 5.5791 1.8848 -0 0 -0 -0 0 -0 -14.022 -63.434 2.5935 -74.904 -42.363 -62.374 -0 0 -0 -0 0 -0 9.9483 -12.346 38.045 44.392 -34.592 22.195 -0 0 -0 1.0591 -16.058 7.8891 1.0591 -16.058 7.8891 -0 0 -0 -0 0 -0 -0 0 -0 -0 0 -0 -0 0 -0 -0 0 -0 -0 0 -0 -0 0 -0 -0 0 -0 -0 0 -0 -0 0 -0 -0 0 -0 
0 95.5 0 -0 0 -0 -0 0 -0 -0 0 -0 2.9058 5.6663 2.1224 -0 0 -0 -0 0 -0 -13.203 -63.589 3.818 -75.714 -42.173 -62.032 -0 0 -0 -0 0 -0 9.4246 -11.974 38.247 44.233 -34.99 21.989 -0 0 -0 1.3559 -16.218 8.2569 1.3559 -16.218 8.2569 -0 0 -0 -0 0 -0 -0 0 -0 -0 0 -0 -0 0 -0 -0 0 -0 -0 0 -0 -0 0 -0 -0 0 -0 -0 0 -0 -0 0 -0 -0 0 -0 
